# Made in Blockbench 4.12.5
mtllib trafficlight_2.mtl

o main
v 0.125 0.375 -0.3125
v 0.125 0.375 -0.375
v 0.125 0.3125 -0.3125
v 0.125 0.3125 -0.375
v -0.125 0.375 -0.3125
v -0.125 0.375 -0.375
v -0.125 0.3125 -0.3125
v -0.125 0.3125 -0.375
v 0.1875 0.6875 -0.375
v 0.1875 0.6875 -0.5
v 0.1875 0 -0.375
v 0.1875 0 -0.5
v -0.1875 0.6875 -0.375
v -0.1875 0.6875 -0.5
v -0.1875 0 -0.375
v -0.1875 0 -0.5
v -0.125 0.6875 -0.3125
v -0.125 0.6875 -0.375
v -0.125 0 -0.3125
v -0.125 0 -0.375
v -0.1875 0.6875 -0.3125
v -0.1875 0 -0.3125
v -0.1875 0 -0.375
v 0.1875 0.6875 -0.3125
v 0.1875 0 -0.3125
v 0.1875 0 -0.375
v 0.125 0.6875 -0.3125
v 0.125 0.6875 -0.375
v 0.125 0 -0.3125
v 0.125 0 -0.375
v 0.125 0.0625 -0.3125
v 0.125 0.0625 -0.375
v 0.125 0 -0.3125
v 0.125 0 -0.375
v -0.125 0.0625 -0.3125
v -0.125 0.0625 -0.375
v -0.125 0 -0.3125
v -0.125 0 -0.375
v 0.125 0.625 -0.3125
v 0.125 0.625 -0.375
v -0.125 0.625 -0.3125
v -0.125 0.625 -0.375
vt 0.0625 0.9375
vt 0.0625 1
vt 0 1
vt 0 0.9375
vt 0.0625 0.9375
vt 0.0625 1
vt 0 1
vt 0 0.9375
vt 0.25 0.9375
vt 0.25 1
vt 0 1
vt 0 0.9375
vt 0.25 0.9375
vt 0.25 1
vt 0 1
vt 0 0.9375
vt 0.25 0.9375
vt 0.25 1
vt 0 1
vt 0 0.9375
vt 0.25 0.9375
vt 0.25 1
vt 0 1
vt 0 0.9375
vt 0.125 0.1875
vt 0.125 1
vt 0 1
vt 0 0.1875
vt 0.125 0.1875
vt 0.125 1
vt 0 1
vt 0 0.1875
vt 0.375 0.875
vt 0.375 1
vt 0 1
vt 0 0.875
vt 0.375 0.875
vt 0.375 1
vt 0 1
vt 0 0.875
vt 0.375 0.1875
vt 0.375 1
vt 0 1
vt 0 0.1875
vt 0.375 0.1875
vt 0.375 1
vt 0 1
vt 0 0.1875
vt 0.0625 0.1875
vt 0.0625 1
vt 0 1
vt 0 0.1875
vt 0.0625 0.1875
vt 0.0625 1
vt 0 1
vt 0 0.1875
vt 0.0625 0.9375
vt 0.0625 1
vt 0 1
vt 0 0.9375
vt 0.0625 0.9375
vt 0.0625 1
vt 0 1
vt 0 0.9375
vt 0.0625 0.1875
vt 0.0625 1
vt 0 1
vt 0 0.1875
vt 0.0625 0.1875
vt 0.0625 1
vt 0 1
vt 0 0.1875
vt 0.0625 0.1875
vt 0.0625 1
vt 0 1
vt 0 0.1875
vt 0.0625 0.1875
vt 0.0625 1
vt 0 1
vt 0 0.1875
vt 0.0625 0.9375
vt 0.0625 1
vt 0 1
vt 0 0.9375
vt 0.0625 0.9375
vt 0.0625 1
vt 0 1
vt 0 0.9375
vt 0.0625 0.1875
vt 0.0625 1
vt 0 1
vt 0 0.1875
vt 0.0625 0.1875
vt 0.0625 1
vt 0 1
vt 0 0.1875
vt 0.0625 0.9375
vt 0.0625 1
vt 0 1
vt 0 0.9375
vt 0.0625 0.9375
vt 0.0625 1
vt 0 1
vt 0 0.9375
vt 0.25 0.9375
vt 0.25 1
vt 0 1
vt 0 0.9375
vt 0.25 0.9375
vt 0.25 1
vt 0 1
vt 0 0.9375
vt 0.25 0.9375
vt 0.25 1
vt 0 1
vt 0 0.9375
vt 0.25 0.9375
vt 0.25 1
vt 0 1
vt 0 0.9375
vt 0.0625 0.9375
vt 0.0625 1
vt 0 1
vt 0 0.9375
vt 0.0625 0.9375
vt 0.0625 1
vt 0 1
vt 0 0.9375
vt 0.25 0.9375
vt 0.25 1
vt 0 1
vt 0 0.9375
vt 0.25 0.9375
vt 0.25 1
vt 0 1
vt 0 0.9375
vt 0.25 0.9375
vt 0.25 1
vt 0 1
vt 0 0.9375
vt 0.25 0.9375
vt 0.25 1
vt 0 1
vt 0 0.9375
vn 1 0 0
vn -1 0 0
vn 0 1 0
vn 0 -1 0
vn 0 0 1
vn 0 0 -1
vn 1 0 0
vn -1 0 0
vn 0 1 0
vn 0 -1 0
vn 0 0 1
vn 0 0 -1
vn 1 0 0
vn -1 0 0
vn 0 1 0
vn 0 -1 0
vn 0 0 1
vn 0 0 -1
vn 1 0 0
vn -1 0 0
vn 0 1 0
vn 0 -1 0
vn 0 0 1
vn 0 0 -1
vn 1 0 0
vn -1 0 0
vn 0 1 0
vn 0 -1 0
vn 0 0 1
vn 0 0 -1
vn 1 0 0
vn -1 0 0
vn 0 1 0
vn 0 -1 0
vn 0 0 1
vn 0 0 -1
usemtl m_29277e77-8020-c336-d54a-82a6c504688a
f 4/1/1 2/2/1 1/3/1
f 4/1/1 1/3/1 3/4/1
f 7/5/2 5/6/2 6/7/2
f 7/5/2 6/7/2 8/8/2
f 1/9/3 2/10/3 6/11/3
f 1/9/3 6/11/3 5/12/3
f 4/13/4 3/14/4 7/15/4
f 4/13/4 7/15/4 8/16/4
f 3/17/5 1/18/5 5/19/5
f 3/17/5 5/19/5 7/20/5
f 8/21/6 6/22/6 2/23/6
f 8/21/6 2/23/6 4/24/6
f 12/25/7 10/26/7 9/27/7
f 12/25/7 9/27/7 11/28/7
f 15/29/8 13/30/8 14/31/8
f 15/29/8 14/31/8 16/32/8
f 9/33/9 10/34/9 14/35/9
f 9/33/9 14/35/9 13/36/9
f 12/37/10 11/38/10 15/39/10
f 12/37/10 15/39/10 16/40/10
usemtl m_2d1d051e-1b1f-e850-6118-36c7b6ffa9d6
f 11/41/11 9/42/11 13/43/11
f 11/41/11 13/43/11 15/44/11
usemtl m_29277e77-8020-c336-d54a-82a6c504688a
f 16/45/12 14/46/12 10/47/12
f 16/45/12 10/47/12 12/48/12
f 20/49/13 18/50/13 17/51/13
f 20/49/13 17/51/13 19/52/13
f 22/53/14 21/54/14 13/55/14
f 22/53/14 13/55/14 23/56/14
f 17/57/15 18/58/15 13/59/15
f 17/57/15 13/59/15 21/60/15
f 20/61/16 19/62/16 22/63/16
f 20/61/16 22/63/16 23/64/16
f 19/65/17 17/66/17 21/67/17
f 19/65/17 21/67/17 22/68/17
f 23/69/18 13/70/18 18/71/18
f 23/69/18 18/71/18 20/72/18
f 26/73/19 9/74/19 24/75/19
f 26/73/19 24/75/19 25/76/19
f 29/77/20 27/78/20 28/79/20
f 29/77/20 28/79/20 30/80/20
f 24/81/21 9/82/21 28/83/21
f 24/81/21 28/83/21 27/84/21
f 26/85/22 25/86/22 29/87/22
f 26/85/22 29/87/22 30/88/22
f 25/89/23 24/90/23 27/91/23
f 25/89/23 27/91/23 29/92/23
f 30/93/24 28/94/24 9/95/24
f 30/93/24 9/95/24 26/96/24
f 34/97/25 32/98/25 31/99/25
f 34/97/25 31/99/25 33/100/25
f 37/101/26 35/102/26 36/103/26
f 37/101/26 36/103/26 38/104/26
f 31/105/27 32/106/27 36/107/27
f 31/105/27 36/107/27 35/108/27
f 34/109/28 33/110/28 37/111/28
f 34/109/28 37/111/28 38/112/28
f 33/113/29 31/114/29 35/115/29
f 33/113/29 35/115/29 37/116/29
f 38/117/30 36/118/30 32/119/30
f 38/117/30 32/119/30 34/120/30
f 40/121/31 28/122/31 27/123/31
f 40/121/31 27/123/31 39/124/31
f 41/125/32 17/126/32 18/127/32
f 41/125/32 18/127/32 42/128/32
f 27/129/33 28/130/33 18/131/33
f 27/129/33 18/131/33 17/132/33
f 40/133/34 39/134/34 41/135/34
f 40/133/34 41/135/34 42/136/34
f 39/137/35 27/138/35 17/139/35
f 39/137/35 17/139/35 41/140/35
f 42/141/36 18/142/36 28/143/36
f 42/141/36 28/143/36 40/144/36
o r
v 0.125 0.625 -0.36875
v 0.125 0.625 -0.36875
v 0.125 0.375 -0.36875
v 0.125 0.375 -0.36875
v -0.125 0.625 -0.36875
v -0.125 0.625 -0.36875
v -0.125 0.375 -0.36875
v -0.125 0.375 -0.36875
vt 0 1
vt 0.25 1
vt 0.25 0.75
vt 0 0.75
vt 0 1
vt 0 1
vt 0 0.75
vt 0 0.75
vt 0 1
vt 0.25 1
vt 0.25 0.75
vt 0 0.75
vt 0 1
vt 0 1
vt 0 0.75
vt 0 0.75
vt 0 1
vt 0.25 1
vt 0.25 1
vt 0 1
vt 0 1
vt 0.25 1
vt 0.25 1
vt 0 1
vn 0 0 -1
vn 1 0 0
vn 0 0 1
vn -1 0 0
vn 0 1 0
vn 0 -1 0
usemtl m_a132d23a-e616-e7c4-808f-60cf7f1026ba
f 49/147/37 47/146/37 44/145/37
f 46/148/37 49/147/37 44/145/37
f 46/151/38 44/150/38 43/149/38
f 45/152/38 46/151/38 43/149/38
f 45/155/39 43/154/39 48/153/39
f 50/156/39 45/155/39 48/153/39
f 50/159/40 48/158/40 47/157/40
f 49/160/40 50/159/40 47/157/40
f 43/163/41 44/162/41 47/161/41
f 48/164/41 43/163/41 47/161/41
f 46/167/42 45/166/42 50/165/42
f 49/168/42 46/167/42 50/165/42
o g
v 0.125 0.3125 -0.36875
v 0.125 0.3125 -0.36875
v 0.125 0.0625 -0.36875
v 0.125 0.0625 -0.36875
v -0.125 0.3125 -0.36875
v -0.125 0.3125 -0.36875
v -0.125 0.0625 -0.36875
v -0.125 0.0625 -0.36875
vt 0 1
vt 0.25 1
vt 0.25 0.75
vt 0 0.75
vt 0 1
vt 0 1
vt 0 0.75
vt 0 0.75
vt 0 1
vt 0.25 1
vt 0.25 0.75
vt 0 0.75
vt 0 1
vt 0 1
vt 0 0.75
vt 0 0.75
vt 0 1
vt 0.25 1
vt 0.25 1
vt 0 1
vt 0 1
vt 0.25 1
vt 0.25 1
vt 0 1
vn 0 0 -1
vn 1 0 0
vn 0 0 1
vn -1 0 0
vn 0 1 0
vn 0 -1 0
usemtl m_a112b053-66d5-4382-b008-c6c795b1f438
f 57/171/43 55/170/43 52/169/43
f 54/172/43 57/171/43 52/169/43
f 54/175/44 52/174/44 51/173/44
f 53/176/44 54/175/44 51/173/44
f 53/179/45 51/178/45 56/177/45
f 58/180/45 53/179/45 56/177/45
f 58/183/46 56/182/46 55/181/46
f 57/184/46 58/183/46 55/181/46
f 51/187/47 52/186/47 55/185/47
f 56/188/47 51/187/47 55/185/47
f 54/191/48 53/190/48 58/189/48
f 57/192/48 54/191/48 58/189/48