# Made in Blockbench 5.1.6
mtllib trafficlight_3.mtl

o r
v 0.125 0.9375 -0.36875
v 0.125 0.9375 -0.36875
v 0.125 0.6875 -0.36875
v 0.125 0.6875 -0.36875
v -0.125 0.9375 -0.36875
v -0.125 0.9375 -0.36875
v -0.125 0.6875 -0.36875
v -0.125 0.6875 -0.36875
vt 0 1
vt 0.25 1
vt 0.25 0.75
vt 0 0.75
vt 0 1
vt 0 1
vt 0 0.75
vt 0 0.75
vt 0 1
vt 0.25 1
vt 0.25 0.75
vt 0 0.75
vt 0 1
vt 0 1
vt 0 0.75
vt 0 0.75
vt 0 1
vt 0.25 1
vt 0.25 1
vt 0 1
vt 0 1
vt 0.25 1
vt 0.25 1
vt 0 1
vn 0 0 -1
vn 1 0 0
vn 0 0 1
vn -1 0 0
vn 0 1 0
vn 0 -1 0
usemtl m_a132d23a-e616-e7c4-808f-60cf7f1026ba
f 7/3/1 5/2/1 2/1/1
f 4/4/1 7/3/1 2/1/1
f 4/7/2 2/6/2 1/5/2
f 3/8/2 4/7/2 1/5/2
f 3/11/3 1/10/3 6/9/3
f 8/12/3 3/11/3 6/9/3
f 8/15/4 6/14/4 5/13/4
f 7/16/4 8/15/4 5/13/4
f 1/19/5 2/18/5 5/17/5
f 6/20/5 1/19/5 5/17/5
f 4/23/6 3/22/6 8/21/6
f 7/24/6 4/23/6 8/21/6
o g
v 0.125 0.3125 -0.36875
v 0.125 0.3125 -0.36875
v 0.125 0.0625 -0.36875
v 0.125 0.0625 -0.36875
v -0.125 0.3125 -0.36875
v -0.125 0.3125 -0.36875
v -0.125 0.0625 -0.36875
v -0.125 0.0625 -0.36875
vt 0 1
vt 0.25 1
vt 0.25 0.75
vt 0 0.75
vt 0 1
vt 0 1
vt 0 0.75
vt 0 0.75
vt 0 1
vt 0.25 1
vt 0.25 0.75
vt 0 0.75
vt 0 1
vt 0 1
vt 0 0.75
vt 0 0.75
vt 0 1
vt 0.25 1
vt 0.25 1
vt 0 1
vt 0 1
vt 0.25 1
vt 0.25 1
vt 0 1
vn 0 0 -1
vn 1 0 0
vn 0 0 1
vn -1 0 0
vn 0 1 0
vn 0 -1 0
usemtl m_a112b053-66d5-4382-b008-c6c795b1f438
f 15/27/7 13/26/7 10/25/7
f 12/28/7 15/27/7 10/25/7
f 12/31/8 10/30/8 9/29/8
f 11/32/8 12/31/8 9/29/8
f 11/35/9 9/34/9 14/33/9
f 16/36/9 11/35/9 14/33/9
f 16/39/10 14/38/10 13/37/10
f 15/40/10 16/39/10 13/37/10
f 9/43/11 10/42/11 13/41/11
f 14/44/11 9/43/11 13/41/11
f 12/47/12 11/46/12 16/45/12
f 15/48/12 12/47/12 16/45/12
o main
v 0.125 0.6875 -0.3125
v 0.125 0.6875 -0.375
v 0.125 0.625 -0.3125
v 0.125 0.625 -0.375
v -0.125 0.6875 -0.3125
v -0.125 0.6875 -0.375
v -0.125 0.625 -0.3125
v -0.125 0.625 -0.375
v 0.125 0.375 -0.3125
v 0.125 0.375 -0.375
v 0.125 0.3125 -0.3125
v 0.125 0.3125 -0.375
v -0.125 0.375 -0.3125
v -0.125 0.375 -0.375
v -0.125 0.3125 -0.3125
v -0.125 0.3125 -0.375
v 0.1875 1 -0.375
v 0.1875 1 -0.5
v 0.1875 0 -0.375
v 0.1875 0 -0.5
v -0.1875 1 -0.375
v -0.1875 1 -0.5
v -0.1875 0 -0.375
v -0.1875 0 -0.5
v -0.125 1 -0.3125
v -0.125 1 -0.375
v -0.125 0 -0.3125
v -0.125 0 -0.375
v -0.1875 1 -0.3125
v -0.1875 0 -0.3125
v -0.1875 0 -0.375
v 0.1875 1 -0.3125
v 0.1875 0 -0.3125
v 0.1875 0 -0.375
v 0.125 1 -0.3125
v 0.125 1 -0.375
v 0.125 0 -0.3125
v 0.125 0 -0.375
v 0.125 0.0625 -0.3125
v 0.125 0.0625 -0.375
v 0.125 0 -0.3125
v 0.125 0 -0.375
v -0.125 0.0625 -0.3125
v -0.125 0.0625 -0.375
v -0.125 0 -0.3125
v -0.125 0 -0.375
v 0.125 0.9375 -0.3125
v 0.125 0.9375 -0.375
v -0.125 0.9375 -0.3125
v -0.125 0.9375 -0.375
vt 0.0625 0.9375
vt 0.0625 1
vt 0 1
vt 0 0.9375
vt 0.0625 0.9375
vt 0.0625 1
vt 0 1
vt 0 0.9375
vt 0.25 0.9375
vt 0.25 1
vt 0 1
vt 0 0.9375
vt 0.25 0.9375
vt 0.25 1
vt 0 1
vt 0 0.9375
vt 0.25 0.9375
vt 0.25 1
vt 0 1
vt 0 0.9375
vt 0.25 0.9375
vt 0.25 1
vt 0 1
vt 0 0.9375
vt 0.0625 0.9375
vt 0.0625 1
vt 0 1
vt 0 0.9375
vt 0.0625 0.9375
vt 0.0625 1
vt 0 1
vt 0 0.9375
vt 0.25 0.9375
vt 0.25 1
vt 0 1
vt 0 0.9375
vt 0.25 0.9375
vt 0.25 1
vt 0 1
vt 0 0.9375
vt 0.25 0.9375
vt 0.25 1
vt 0 1
vt 0 0.9375
vt 0.25 0.9375
vt 0.25 1
vt 0 1
vt 0 0.9375
vt 0.125 0.1875
vt 0.125 1
vt 0 1
vt 0 0.1875
vt 0.125 0.1875
vt 0.125 1
vt 0 1
vt 0 0.1875
vt 0.375 0.875
vt 0.375 1
vt 0 1
vt 0 0.875
vt 0.375 0.875
vt 0.375 1
vt 0 1
vt 0 0.875
vt 0.375 0.1875
vt 0.375 1
vt 0 1
vt 0 0.1875
vt 0.375 0.1875
vt 0.375 1
vt 0 1
vt 0 0.1875
vt 0.0625 0.1875
vt 0.0625 1
vt 0 1
vt 0 0.1875
vt 0.0625 0.1875
vt 0.0625 1
vt 0 1
vt 0 0.1875
vt 0.0625 0.9375
vt 0.0625 1
vt 0 1
vt 0 0.9375
vt 0.0625 0.9375
vt 0.0625 1
vt 0 1
vt 0 0.9375
vt 0.0625 0.1875
vt 0.0625 1
vt 0 1
vt 0 0.1875
vt 0.0625 0.1875
vt 0.0625 1
vt 0 1
vt 0 0.1875
vt 0.0625 0.1875
vt 0.0625 1
vt 0 1
vt 0 0.1875
vt 0.0625 0.1875
vt 0.0625 1
vt 0 1
vt 0 0.1875
vt 0.0625 0.9375
vt 0.0625 1
vt 0 1
vt 0 0.9375
vt 0.0625 0.9375
vt 0.0625 1
vt 0 1
vt 0 0.9375
vt 0.0625 0.1875
vt 0.0625 1
vt 0 1
vt 0 0.1875
vt 0.0625 0.1875
vt 0.0625 1
vt 0 1
vt 0 0.1875
vt 0.0625 0.9375
vt 0.0625 1
vt 0 1
vt 0 0.9375
vt 0.0625 0.9375
vt 0.0625 1
vt 0 1
vt 0 0.9375
vt 0.25 0.9375
vt 0.25 1
vt 0 1
vt 0 0.9375
vt 0.25 0.9375
vt 0.25 1
vt 0 1
vt 0 0.9375
vt 0.25 0.9375
vt 0.25 1
vt 0 1
vt 0 0.9375
vt 0.25 0.9375
vt 0.25 1
vt 0 1
vt 0 0.9375
vt 0.0625 0.9375
vt 0.0625 1
vt 0 1
vt 0 0.9375
vt 0.0625 0.9375
vt 0.0625 1
vt 0 1
vt 0 0.9375
vt 0.25 0.9375
vt 0.25 1
vt 0 1
vt 0 0.9375
vt 0.25 0.9375
vt 0.25 1
vt 0 1
vt 0 0.9375
vt 0.25 0.9375
vt 0.25 1
vt 0 1
vt 0 0.9375
vt 0.25 0.9375
vt 0.25 1
vt 0 1
vt 0 0.9375
vn 1 0 0
vn -1 0 0
vn 0 1 0
vn 0 -1 0
vn 0 0 1
vn 0 0 -1
vn 1 0 0
vn -1 0 0
vn 0 1 0
vn 0 -1 0
vn 0 0 1
vn 0 0 -1
vn 1 0 0
vn -1 0 0
vn 0 1 0
vn 0 -1 0
vn 0 0 1
vn 0 0 -1
vn 1 0 0
vn -1 0 0
vn 0 1 0
vn 0 -1 0
vn 0 0 1
vn 0 0 -1
vn 1 0 0
vn -1 0 0
vn 0 1 0
vn 0 -1 0
vn 0 0 1
vn 0 0 -1
vn 1 0 0
vn -1 0 0
vn 0 1 0
vn 0 -1 0
vn 0 0 1
vn 0 0 -1
vn 1 0 0
vn -1 0 0
vn 0 1 0
vn 0 -1 0
vn 0 0 1
vn 0 0 -1
usemtl m_29277e77-8020-c336-d54a-82a6c504688a
f 20/49/13 18/50/13 17/51/13
f 20/49/13 17/51/13 19/52/13
f 23/53/14 21/54/14 22/55/14
f 23/53/14 22/55/14 24/56/14
f 17/57/15 18/58/15 22/59/15
f 17/57/15 22/59/15 21/60/15
f 20/61/16 19/62/16 23/63/16
f 20/61/16 23/63/16 24/64/16
f 19/65/17 17/66/17 21/67/17
f 19/65/17 21/67/17 23/68/17
f 24/69/18 22/70/18 18/71/18
f 24/69/18 18/71/18 20/72/18
f 28/73/19 26/74/19 25/75/19
f 28/73/19 25/75/19 27/76/19
f 31/77/20 29/78/20 30/79/20
f 31/77/20 30/79/20 32/80/20
f 25/81/21 26/82/21 30/83/21
f 25/81/21 30/83/21 29/84/21
f 28/85/22 27/86/22 31/87/22
f 28/85/22 31/87/22 32/88/22
f 27/89/23 25/90/23 29/91/23
f 27/89/23 29/91/23 31/92/23
f 32/93/24 30/94/24 26/95/24
f 32/93/24 26/95/24 28/96/24
f 36/97/25 34/98/25 33/99/25
f 36/97/25 33/99/25 35/100/25
f 39/101/26 37/102/26 38/103/26
f 39/101/26 38/103/26 40/104/26
f 33/105/27 34/106/27 38/107/27
f 33/105/27 38/107/27 37/108/27
f 36/109/28 35/110/28 39/111/28
f 36/109/28 39/111/28 40/112/28
usemtl m_2d1d051e-1b1f-e850-6118-36c7b6ffa9d6
f 35/113/29 33/114/29 37/115/29
f 35/113/29 37/115/29 39/116/29
usemtl m_29277e77-8020-c336-d54a-82a6c504688a
f 40/117/30 38/118/30 34/119/30
f 40/117/30 34/119/30 36/120/30
f 44/121/31 42/122/31 41/123/31
f 44/121/31 41/123/31 43/124/31
f 46/125/32 45/126/32 37/127/32
f 46/125/32 37/127/32 47/128/32
f 41/129/33 42/130/33 37/131/33
f 41/129/33 37/131/33 45/132/33
f 44/133/34 43/134/34 46/135/34
f 44/133/34 46/135/34 47/136/34
f 43/137/35 41/138/35 45/139/35
f 43/137/35 45/139/35 46/140/35
f 47/141/36 37/142/36 42/143/36
f 47/141/36 42/143/36 44/144/36
f 50/145/37 33/146/37 48/147/37
f 50/145/37 48/147/37 49/148/37
f 53/149/38 51/150/38 52/151/38
f 53/149/38 52/151/38 54/152/38
f 48/153/39 33/154/39 52/155/39
f 48/153/39 52/155/39 51/156/39
f 50/157/40 49/158/40 53/159/40
f 50/157/40 53/159/40 54/160/40
f 49/161/41 48/162/41 51/163/41
f 49/161/41 51/163/41 53/164/41
f 54/165/42 52/166/42 33/167/42
f 54/165/42 33/167/42 50/168/42
f 58/169/43 56/170/43 55/171/43
f 58/169/43 55/171/43 57/172/43
f 61/173/44 59/174/44 60/175/44
f 61/173/44 60/175/44 62/176/44
f 55/177/45 56/178/45 60/179/45
f 55/177/45 60/179/45 59/180/45
f 58/181/46 57/182/46 61/183/46
f 58/181/46 61/183/46 62/184/46
f 57/185/47 55/186/47 59/187/47
f 57/185/47 59/187/47 61/188/47
f 62/189/48 60/190/48 56/191/48
f 62/189/48 56/191/48 58/192/48
f 64/193/49 52/194/49 51/195/49
f 64/193/49 51/195/49 63/196/49
f 65/197/50 41/198/50 42/199/50
f 65/197/50 42/199/50 66/200/50
f 51/201/51 52/202/51 42/203/51
f 51/201/51 42/203/51 41/204/51
f 64/205/52 63/206/52 65/207/52
f 64/205/52 65/207/52 66/208/52
f 63/209/53 51/210/53 41/211/53
f 63/209/53 41/211/53 65/212/53
f 66/213/54 42/214/54 52/215/54
f 66/213/54 52/215/54 64/216/54
o y
v 0.125 0.625 -0.36875
v 0.125 0.625 -0.36875
v 0.125 0.375 -0.36875
v 0.125 0.375 -0.36875
v -0.125 0.625 -0.36875
v -0.125 0.625 -0.36875
v -0.125 0.375 -0.36875
v -0.125 0.375 -0.36875
vt 0 1
vt 0.25 1
vt 0.25 0.75
vt 0 0.75
vt 0 1
vt 0 1
vt 0 0.75
vt 0 0.75
vt 0 1
vt 0.25 1
vt 0.25 0.75
vt 0 0.75
vt 0 1
vt 0 1
vt 0 0.75
vt 0 0.75
vt 0 1
vt 0.25 1
vt 0.25 1
vt 0 1
vt 0 1
vt 0.25 1
vt 0.25 1
vt 0 1
vn 0 0 -1
vn 1 0 0
vn 0 0 1
vn -1 0 0
vn 0 1 0
vn 0 -1 0
usemtl m_dfbb3589-7b06-e3d8-dfee-5ff5f0e56ea1
f 73/219/55 71/218/55 68/217/55
f 70/220/55 73/219/55 68/217/55
f 70/223/56 68/222/56 67/221/56
f 69/224/56 70/223/56 67/221/56
f 69/227/57 67/226/57 72/225/57
f 74/228/57 69/227/57 72/225/57
f 74/231/58 72/230/58 71/229/58
f 73/232/58 74/231/58 71/229/58
f 67/235/59 68/234/59 71/233/59
f 72/236/59 67/235/59 71/233/59
f 70/239/60 69/238/60 74/237/60
f 73/240/60 70/239/60 74/237/60
o digit_r_1_a
v -0.028124999999999997 0.571875 -0.37187499999999996
v -0.028124999999999997 0.571875 -0.37187499999999996
v -0.028124999999999997 0.5593750000000001 -0.37187499999999996
v -0.028124999999999997 0.5593750000000001 -0.37187499999999996
v -0.08125 0.571875 -0.37187499999999996
v -0.08125 0.571875 -0.37187499999999996
v -0.08125 0.5593750000000001 -0.37187499999999996
v -0.08125 0.5593750000000001 -0.37187499999999996
vt 0.153125 0.953125
vt 0.20625000000000002 0.953125
vt 0.20625000000000002 0.940625
vt 0.153125 0.940625
vt 0 0.953125
vt 0 0.953125
vt 0 0.940625
vt 0 0.940625
vt 0.04375 0.953125
vt 0.096875 0.953125
vt 0.096875 0.940625
vt 0.04375 0.940625
vt 0 0.953125
vt 0 0.953125
vt 0 0.940625
vt 0 0.940625
vt 0.04375 1
vt 0.096875 1
vt 0.096875 1
vt 0.04375 1
vt 0.04375 1
vt 0.096875 1
vt 0.096875 1
vt 0.04375 1
vn 0 0 -1
vn 1 0 0
vn 0 0 1
vn -1 0 0
vn 0 1 0
vn 0 -1 0
usemtl m_a132d23a-e616-e7c4-808f-60cf7f1026ba
f 81/243/61 79/242/61 76/241/61
f 78/244/61 81/243/61 76/241/61
f 78/247/62 76/246/62 75/245/62
f 77/248/62 78/247/62 75/245/62
f 77/251/63 75/250/63 80/249/63
f 82/252/63 77/251/63 80/249/63
f 82/255/64 80/254/64 79/253/64
f 81/256/64 82/255/64 79/253/64
f 75/259/65 76/258/65 79/257/65
f 80/260/65 75/259/65 79/257/65
f 78/263/66 77/262/66 82/261/66
f 81/264/66 78/263/66 82/261/66
o digit_r_1_b
v -0.015625 0.5593750000000002 -0.37187499999999996
v -0.015625 0.5593750000000002 -0.37187499999999996
v -0.015625 0.5031250000000003 -0.37187499999999996
v -0.015625 0.5031250000000003 -0.37187499999999996
v -0.028124999999999997 0.5593750000000002 -0.37187499999999996
v -0.028124999999999997 0.5593750000000002 -0.37187499999999996
v -0.028124999999999997 0.5031250000000003 -0.37187499999999996
v -0.028124999999999997 0.5031250000000003 -0.37187499999999996
vt 0.140625 0.99375
vt 0.153125 0.99375
vt 0.153125 0.9375
vt 0.140625 0.9375
vt 0 0.99375
vt 0 0.99375
vt 0 0.9375
vt 0 0.9375
vt 0.096875 0.99375
vt 0.109375 0.99375
vt 0.109375 0.9375
vt 0.096875 0.9375
vt 0 0.99375
vt 0 0.99375
vt 0 0.9375
vt 0 0.9375
vt 0.096875 1
vt 0.109375 1
vt 0.109375 1
vt 0.096875 1
vt 0.096875 1
vt 0.109375 1
vt 0.109375 1
vt 0.096875 1
vn 0 0 -1
vn 1 0 0
vn 0 0 1
vn -1 0 0
vn 0 1 0
vn 0 -1 0
usemtl m_a132d23a-e616-e7c4-808f-60cf7f1026ba
f 89/267/67 87/266/67 84/265/67
f 86/268/67 89/267/67 84/265/67
f 86/271/68 84/270/68 83/269/68
f 85/272/68 86/271/68 83/269/68
f 85/275/69 83/274/69 88/273/69
f 90/276/69 85/275/69 88/273/69
f 90/279/70 88/278/70 87/277/70
f 89/280/70 90/279/70 87/277/70
f 83/283/71 84/282/71 87/281/71
f 88/284/71 83/283/71 87/281/71
f 86/287/72 85/286/72 90/285/72
f 89/288/72 86/287/72 90/285/72
o digit_r_1_c
v -0.015625 0.49062500000000053 -0.37187499999999996
v -0.015625 0.49062500000000053 -0.37187499999999996
v -0.015625 0.4343750000000005 -0.37187499999999996
v -0.015625 0.4343750000000005 -0.37187499999999996
v -0.028124999999999997 0.49062500000000053 -0.37187499999999996
v -0.028124999999999997 0.49062500000000053 -0.37187499999999996
v -0.028124999999999997 0.4343750000000005 -0.37187499999999996
v -0.028124999999999997 0.4343750000000005 -0.37187499999999996
vt 0.140625 0.99375
vt 0.153125 0.99375
vt 0.153125 0.9375
vt 0.140625 0.9375
vt 0 0.99375
vt 0 0.99375
vt 0 0.9375
vt 0 0.9375
vt 0.096875 0.99375
vt 0.109375 0.99375
vt 0.109375 0.9375
vt 0.096875 0.9375
vt 0 0.99375
vt 0 0.99375
vt 0 0.9375
vt 0 0.9375
vt 0.096875 1
vt 0.109375 1
vt 0.109375 1
vt 0.096875 1
vt 0.096875 1
vt 0.109375 1
vt 0.109375 1
vt 0.096875 1
vn 0 0 -1
vn 1 0 0
vn 0 0 1
vn -1 0 0
vn 0 1 0
vn 0 -1 0
usemtl m_a132d23a-e616-e7c4-808f-60cf7f1026ba
f 97/291/73 95/290/73 92/289/73
f 94/292/73 97/291/73 92/289/73
f 94/295/74 92/294/74 91/293/74
f 93/296/74 94/295/74 91/293/74
f 93/299/75 91/298/75 96/297/75
f 98/300/75 93/299/75 96/297/75
f 98/303/76 96/302/76 95/301/76
f 97/304/76 98/303/76 95/301/76
f 91/307/77 92/306/77 95/305/77
f 96/308/77 91/307/77 95/305/77
f 94/311/78 93/310/78 98/309/78
f 97/312/78 94/311/78 98/309/78
o digit_r_1_d
v -0.028124999999999997 0.4343750000000005 -0.37187499999999996
v -0.028124999999999997 0.4343750000000005 -0.37187499999999996
v -0.028124999999999997 0.42187500000000056 -0.37187499999999996
v -0.028124999999999997 0.42187500000000056 -0.37187499999999996
v -0.08125 0.4343750000000005 -0.37187499999999996
v -0.08125 0.4343750000000005 -0.37187499999999996
v -0.08125 0.42187500000000056 -0.37187499999999996
v -0.08125 0.42187500000000056 -0.37187499999999996
vt 0.153125 0.953125
vt 0.20625000000000002 0.953125
vt 0.20625000000000002 0.940625
vt 0.153125 0.940625
vt 0 0.953125
vt 0 0.953125
vt 0 0.940625
vt 0 0.940625
vt 0.04375 0.953125
vt 0.096875 0.953125
vt 0.096875 0.940625
vt 0.04375 0.940625
vt 0 0.953125
vt 0 0.953125
vt 0 0.940625
vt 0 0.940625
vt 0.04375 1
vt 0.096875 1
vt 0.096875 1
vt 0.04375 1
vt 0.04375 1
vt 0.096875 1
vt 0.096875 1
vt 0.04375 1
vn 0 0 -1
vn 1 0 0
vn 0 0 1
vn -1 0 0
vn 0 1 0
vn 0 -1 0
usemtl m_a132d23a-e616-e7c4-808f-60cf7f1026ba
f 105/315/79 103/314/79 100/313/79
f 102/316/79 105/315/79 100/313/79
f 102/319/80 100/318/80 99/317/80
f 101/320/80 102/319/80 99/317/80
f 101/323/81 99/322/81 104/321/81
f 106/324/81 101/323/81 104/321/81
f 106/327/82 104/326/82 103/325/82
f 105/328/82 106/327/82 103/325/82
f 99/331/83 100/330/83 103/329/83
f 104/332/83 99/331/83 103/329/83
f 102/335/84 101/334/84 106/333/84
f 105/336/84 102/335/84 106/333/84
o digit_r_1_e
v -0.08124999999999993 0.49062500000000053 -0.37187499999999996
v -0.08124999999999993 0.49062500000000053 -0.37187499999999996
v -0.08124999999999993 0.4343750000000005 -0.37187499999999996
v -0.08124999999999993 0.4343750000000005 -0.37187499999999996
v -0.09374999999999992 0.49062500000000053 -0.37187499999999996
v -0.09374999999999992 0.49062500000000053 -0.37187499999999996
v -0.09374999999999992 0.4343750000000005 -0.37187499999999996
v -0.09374999999999992 0.4343750000000005 -0.37187499999999996
vt 0.140625 0.99375
vt 0.153125 0.99375
vt 0.153125 0.9375
vt 0.140625 0.9375
vt 0 0.99375
vt 0 0.99375
vt 0 0.9375
vt 0 0.9375
vt 0.096875 0.99375
vt 0.109375 0.99375
vt 0.109375 0.9375
vt 0.096875 0.9375
vt 0 0.99375
vt 0 0.99375
vt 0 0.9375
vt 0 0.9375
vt 0.096875 1
vt 0.109375 1
vt 0.109375 1
vt 0.096875 1
vt 0.096875 1
vt 0.109375 1
vt 0.109375 1
vt 0.096875 1
vn 0 0 -1
vn 1 0 0
vn 0 0 1
vn -1 0 0
vn 0 1 0
vn 0 -1 0
usemtl m_a132d23a-e616-e7c4-808f-60cf7f1026ba
f 113/339/85 111/338/85 108/337/85
f 110/340/85 113/339/85 108/337/85
f 110/343/86 108/342/86 107/341/86
f 109/344/86 110/343/86 107/341/86
f 109/347/87 107/346/87 112/345/87
f 114/348/87 109/347/87 112/345/87
f 114/351/88 112/350/88 111/349/88
f 113/352/88 114/351/88 111/349/88
f 107/355/89 108/354/89 111/353/89
f 112/356/89 107/355/89 111/353/89
f 110/359/90 109/358/90 114/357/90
f 113/360/90 110/359/90 114/357/90
o digit_r_1_f
v -0.08124999999999993 0.5593750000000003 -0.37187499999999996
v -0.08124999999999993 0.5593750000000003 -0.37187499999999996
v -0.08124999999999993 0.5031250000000004 -0.37187499999999996
v -0.08124999999999993 0.5031250000000004 -0.37187499999999996
v -0.09374999999999992 0.5593750000000003 -0.37187499999999996
v -0.09374999999999992 0.5593750000000003 -0.37187499999999996
v -0.09374999999999992 0.5031250000000004 -0.37187499999999996
v -0.09374999999999992 0.5031250000000004 -0.37187499999999996
vt 0.140625 0.99375
vt 0.153125 0.99375
vt 0.153125 0.9375
vt 0.140625 0.9375
vt 0 0.99375
vt 0 0.99375
vt 0 0.9375
vt 0 0.9375
vt 0.096875 0.99375
vt 0.109375 0.99375
vt 0.109375 0.9375
vt 0.096875 0.9375
vt 0 0.99375
vt 0 0.99375
vt 0 0.9375
vt 0 0.9375
vt 0.096875 1
vt 0.109375 1
vt 0.109375 1
vt 0.096875 1
vt 0.096875 1
vt 0.109375 1
vt 0.109375 1
vt 0.096875 1
vn 0 0 -1
vn 1 0 0
vn 0 0 1
vn -1 0 0
vn 0 1 0
vn 0 -1 0
usemtl m_a132d23a-e616-e7c4-808f-60cf7f1026ba
f 121/363/91 119/362/91 116/361/91
f 118/364/91 121/363/91 116/361/91
f 118/367/92 116/366/92 115/365/92
f 117/368/92 118/367/92 115/365/92
f 117/371/93 115/370/93 120/369/93
f 122/372/93 117/371/93 120/369/93
f 122/375/94 120/374/94 119/373/94
f 121/376/94 122/375/94 119/373/94
f 115/379/95 116/378/95 119/377/95
f 120/380/95 115/379/95 119/377/95
f 118/383/96 117/382/96 122/381/96
f 121/384/96 118/383/96 122/381/96
o digit_r_1_g
v -0.028124999999999997 0.5031250000000003 -0.37187499999999996
v -0.028124999999999997 0.5031250000000003 -0.37187499999999996
v -0.028124999999999997 0.4906250000000003 -0.37187499999999996
v -0.028124999999999997 0.4906250000000003 -0.37187499999999996
v -0.08125 0.5031250000000003 -0.37187499999999996
v -0.08125 0.5031250000000003 -0.37187499999999996
v -0.08125 0.4906250000000003 -0.37187499999999996
v -0.08125 0.4906250000000003 -0.37187499999999996
vt 0.153125 0.953125
vt 0.20625000000000002 0.953125
vt 0.20625000000000002 0.940625
vt 0.153125 0.940625
vt 0 0.953125
vt 0 0.953125
vt 0 0.940625
vt 0 0.940625
vt 0.04375 0.953125
vt 0.096875 0.953125
vt 0.096875 0.940625
vt 0.04375 0.940625
vt 0 0.953125
vt 0 0.953125
vt 0 0.940625
vt 0 0.940625
vt 0.04375 1
vt 0.096875 1
vt 0.096875 1
vt 0.04375 1
vt 0.04375 1
vt 0.096875 1
vt 0.096875 1
vt 0.04375 1
vn 0 0 -1
vn 1 0 0
vn 0 0 1
vn -1 0 0
vn 0 1 0
vn 0 -1 0
usemtl m_a132d23a-e616-e7c4-808f-60cf7f1026ba
f 129/387/97 127/386/97 124/385/97
f 126/388/97 129/387/97 124/385/97
f 126/391/98 124/390/98 123/389/98
f 125/392/98 126/391/98 123/389/98
f 125/395/99 123/394/99 128/393/99
f 130/396/99 125/395/99 128/393/99
f 130/399/100 128/398/100 127/397/100
f 129/400/100 130/399/100 127/397/100
f 123/403/101 124/402/101 127/401/101
f 128/404/101 123/403/101 127/401/101
f 126/407/102 125/406/102 130/405/102
f 129/408/102 126/407/102 130/405/102
o digit_r_2_a
v 0.08125 0.571875 -0.37187499999999996
v 0.08125 0.571875 -0.37187499999999996
v 0.08125 0.5593750000000001 -0.37187499999999996
v 0.08125 0.5593750000000001 -0.37187499999999996
v 0.028124999999999997 0.571875 -0.37187499999999996
v 0.028124999999999997 0.571875 -0.37187499999999996
v 0.028124999999999997 0.5593750000000001 -0.37187499999999996
v 0.028124999999999997 0.5593750000000001 -0.37187499999999996
vt 0.20625000000000002 0.953125
vt 0.153125 0.953125
vt 0.153125 0.940625
vt 0.20625000000000002 0.940625
vt 0 0.953125
vt 0 0.953125
vt 0 0.940625
vt 0 0.940625
vt 0.096875 0.953125
vt 0.04375 0.953125
vt 0.04375 0.940625
vt 0.096875 0.940625
vt 0 0.953125
vt 0 0.953125
vt 0 0.940625
vt 0 0.940625
vt 0.096875 1
vt 0.04375 1
vt 0.04375 1
vt 0.096875 1
vt 0.096875 1
vt 0.04375 1
vt 0.04375 1
vt 0.096875 1
vn 0 0 -1
vn 1 0 0
vn 0 0 1
vn -1 0 0
vn 0 1 0
vn 0 -1 0
usemtl m_a132d23a-e616-e7c4-808f-60cf7f1026ba
f 137/411/103 135/410/103 132/409/103
f 134/412/103 137/411/103 132/409/103
f 134/415/104 132/414/104 131/413/104
f 133/416/104 134/415/104 131/413/104
f 133/419/105 131/418/105 136/417/105
f 138/420/105 133/419/105 136/417/105
f 138/423/106 136/422/106 135/421/106
f 137/424/106 138/423/106 135/421/106
f 131/427/107 132/426/107 135/425/107
f 136/428/107 131/427/107 135/425/107
f 134/431/108 133/430/108 138/429/108
f 137/432/108 134/431/108 138/429/108
o digit_r_2_b
v 0.028124999999999997 0.5593750000000002 -0.37187499999999996
v 0.028124999999999997 0.5593750000000002 -0.37187499999999996
v 0.028124999999999997 0.5031250000000003 -0.37187499999999996
v 0.028124999999999997 0.5031250000000003 -0.37187499999999996
v 0.015625 0.5593750000000002 -0.37187499999999996
v 0.015625 0.5593750000000002 -0.37187499999999996
v 0.015625 0.5031250000000003 -0.37187499999999996
v 0.015625 0.5031250000000003 -0.37187499999999996
vt 0.153125 0.99375
vt 0.140625 0.99375
vt 0.140625 0.9375
vt 0.153125 0.9375
vt 0 0.99375
vt 0 0.99375
vt 0 0.9375
vt 0 0.9375
vt 0.109375 0.99375
vt 0.096875 0.99375
vt 0.096875 0.9375
vt 0.109375 0.9375
vt 0 0.99375
vt 0 0.99375
vt 0 0.9375
vt 0 0.9375
vt 0.109375 1
vt 0.096875 1
vt 0.096875 1
vt 0.109375 1
vt 0.109375 1
vt 0.096875 1
vt 0.096875 1
vt 0.109375 1
vn 0 0 -1
vn 1 0 0
vn 0 0 1
vn -1 0 0
vn 0 1 0
vn 0 -1 0
usemtl m_a132d23a-e616-e7c4-808f-60cf7f1026ba
f 145/435/109 143/434/109 140/433/109
f 142/436/109 145/435/109 140/433/109
f 142/439/110 140/438/110 139/437/110
f 141/440/110 142/439/110 139/437/110
f 141/443/111 139/442/111 144/441/111
f 146/444/111 141/443/111 144/441/111
f 146/447/112 144/446/112 143/445/112
f 145/448/112 146/447/112 143/445/112
f 139/451/113 140/450/113 143/449/113
f 144/452/113 139/451/113 143/449/113
f 142/455/114 141/454/114 146/453/114
f 145/456/114 142/455/114 146/453/114
o digit_r_2_c
v 0.028124999999999997 0.49062500000000053 -0.37187499999999996
v 0.028124999999999997 0.49062500000000053 -0.37187499999999996
v 0.028124999999999997 0.4343750000000005 -0.37187499999999996
v 0.028124999999999997 0.4343750000000005 -0.37187499999999996
v 0.015625 0.49062500000000053 -0.37187499999999996
v 0.015625 0.49062500000000053 -0.37187499999999996
v 0.015625 0.4343750000000005 -0.37187499999999996
v 0.015625 0.4343750000000005 -0.37187499999999996
vt 0.153125 0.99375
vt 0.140625 0.99375
vt 0.140625 0.9375
vt 0.153125 0.9375
vt 0 0.99375
vt 0 0.99375
vt 0 0.9375
vt 0 0.9375
vt 0.109375 0.99375
vt 0.096875 0.99375
vt 0.096875 0.9375
vt 0.109375 0.9375
vt 0 0.99375
vt 0 0.99375
vt 0 0.9375
vt 0 0.9375
vt 0.109375 1
vt 0.096875 1
vt 0.096875 1
vt 0.109375 1
vt 0.109375 1
vt 0.096875 1
vt 0.096875 1
vt 0.109375 1
vn 0 0 -1
vn 1 0 0
vn 0 0 1
vn -1 0 0
vn 0 1 0
vn 0 -1 0
usemtl m_a132d23a-e616-e7c4-808f-60cf7f1026ba
f 153/459/115 151/458/115 148/457/115
f 150/460/115 153/459/115 148/457/115
f 150/463/116 148/462/116 147/461/116
f 149/464/116 150/463/116 147/461/116
f 149/467/117 147/466/117 152/465/117
f 154/468/117 149/467/117 152/465/117
f 154/471/118 152/470/118 151/469/118
f 153/472/118 154/471/118 151/469/118
f 147/475/119 148/474/119 151/473/119
f 152/476/119 147/475/119 151/473/119
f 150/479/120 149/478/120 154/477/120
f 153/480/120 150/479/120 154/477/120
o digit_r_2_d
v 0.08125 0.4343750000000005 -0.37187499999999996
v 0.08125 0.4343750000000005 -0.37187499999999996
v 0.08125 0.42187500000000056 -0.37187499999999996
v 0.08125 0.42187500000000056 -0.37187499999999996
v 0.028124999999999997 0.4343750000000005 -0.37187499999999996
v 0.028124999999999997 0.4343750000000005 -0.37187499999999996
v 0.028124999999999997 0.42187500000000056 -0.37187499999999996
v 0.028124999999999997 0.42187500000000056 -0.37187499999999996
vt 0.20625000000000002 0.953125
vt 0.153125 0.953125
vt 0.153125 0.940625
vt 0.20625000000000002 0.940625
vt 0 0.953125
vt 0 0.953125
vt 0 0.940625
vt 0 0.940625
vt 0.096875 0.953125
vt 0.04375 0.953125
vt 0.04375 0.940625
vt 0.096875 0.940625
vt 0 0.953125
vt 0 0.953125
vt 0 0.940625
vt 0 0.940625
vt 0.096875 1
vt 0.04375 1
vt 0.04375 1
vt 0.096875 1
vt 0.096875 1
vt 0.04375 1
vt 0.04375 1
vt 0.096875 1
vn 0 0 -1
vn 1 0 0
vn 0 0 1
vn -1 0 0
vn 0 1 0
vn 0 -1 0
usemtl m_a132d23a-e616-e7c4-808f-60cf7f1026ba
f 161/483/121 159/482/121 156/481/121
f 158/484/121 161/483/121 156/481/121
f 158/487/122 156/486/122 155/485/122
f 157/488/122 158/487/122 155/485/122
f 157/491/123 155/490/123 160/489/123
f 162/492/123 157/491/123 160/489/123
f 162/495/124 160/494/124 159/493/124
f 161/496/124 162/495/124 159/493/124
f 155/499/125 156/498/125 159/497/125
f 160/500/125 155/499/125 159/497/125
f 158/503/126 157/502/126 162/501/126
f 161/504/126 158/503/126 162/501/126
o digit_r_2_e
v 0.09374999999999992 0.49062500000000053 -0.37187499999999996
v 0.09374999999999992 0.49062500000000053 -0.37187499999999996
v 0.09374999999999992 0.4343750000000005 -0.37187499999999996
v 0.09374999999999992 0.4343750000000005 -0.37187499999999996
v 0.08124999999999993 0.49062500000000053 -0.37187499999999996
v 0.08124999999999993 0.49062500000000053 -0.37187499999999996
v 0.08124999999999993 0.4343750000000005 -0.37187499999999996
v 0.08124999999999993 0.4343750000000005 -0.37187499999999996
vt 0.153125 0.99375
vt 0.140625 0.99375
vt 0.140625 0.9375
vt 0.153125 0.9375
vt 0 0.99375
vt 0 0.99375
vt 0 0.9375
vt 0 0.9375
vt 0.109375 0.99375
vt 0.096875 0.99375
vt 0.096875 0.9375
vt 0.109375 0.9375
vt 0 0.99375
vt 0 0.99375
vt 0 0.9375
vt 0 0.9375
vt 0.109375 1
vt 0.096875 1
vt 0.096875 1
vt 0.109375 1
vt 0.109375 1
vt 0.096875 1
vt 0.096875 1
vt 0.109375 1
vn 0 0 -1
vn 1 0 0
vn 0 0 1
vn -1 0 0
vn 0 1 0
vn 0 -1 0
usemtl m_a132d23a-e616-e7c4-808f-60cf7f1026ba
f 169/507/127 167/506/127 164/505/127
f 166/508/127 169/507/127 164/505/127
f 166/511/128 164/510/128 163/509/128
f 165/512/128 166/511/128 163/509/128
f 165/515/129 163/514/129 168/513/129
f 170/516/129 165/515/129 168/513/129
f 170/519/130 168/518/130 167/517/130
f 169/520/130 170/519/130 167/517/130
f 163/523/131 164/522/131 167/521/131
f 168/524/131 163/523/131 167/521/131
f 166/527/132 165/526/132 170/525/132
f 169/528/132 166/527/132 170/525/132
o digit_r_2_f
v 0.09374999999999992 0.5593750000000003 -0.37187499999999996
v 0.09374999999999992 0.5593750000000003 -0.37187499999999996
v 0.09374999999999992 0.5031250000000004 -0.37187499999999996
v 0.09374999999999992 0.5031250000000004 -0.37187499999999996
v 0.08124999999999993 0.5593750000000003 -0.37187499999999996
v 0.08124999999999993 0.5593750000000003 -0.37187499999999996
v 0.08124999999999993 0.5031250000000004 -0.37187499999999996
v 0.08124999999999993 0.5031250000000004 -0.37187499999999996
vt 0.153125 0.99375
vt 0.140625 0.99375
vt 0.140625 0.9375
vt 0.153125 0.9375
vt 0 0.99375
vt 0 0.99375
vt 0 0.9375
vt 0 0.9375
vt 0.109375 0.99375
vt 0.096875 0.99375
vt 0.096875 0.9375
vt 0.109375 0.9375
vt 0 0.99375
vt 0 0.99375
vt 0 0.9375
vt 0 0.9375
vt 0.109375 1
vt 0.096875 1
vt 0.096875 1
vt 0.109375 1
vt 0.109375 1
vt 0.096875 1
vt 0.096875 1
vt 0.109375 1
vn 0 0 -1
vn 1 0 0
vn 0 0 1
vn -1 0 0
vn 0 1 0
vn 0 -1 0
usemtl m_a132d23a-e616-e7c4-808f-60cf7f1026ba
f 177/531/133 175/530/133 172/529/133
f 174/532/133 177/531/133 172/529/133
f 174/535/134 172/534/134 171/533/134
f 173/536/134 174/535/134 171/533/134
f 173/539/135 171/538/135 176/537/135
f 178/540/135 173/539/135 176/537/135
f 178/543/136 176/542/136 175/541/136
f 177/544/136 178/543/136 175/541/136
f 171/547/137 172/546/137 175/545/137
f 176/548/137 171/547/137 175/545/137
f 174/551/138 173/550/138 178/549/138
f 177/552/138 174/551/138 178/549/138
o digit_r_2_g
v 0.08125 0.5031250000000003 -0.37187499999999996
v 0.08125 0.5031250000000003 -0.37187499999999996
v 0.08125 0.4906250000000003 -0.37187499999999996
v 0.08125 0.4906250000000003 -0.37187499999999996
v 0.028124999999999997 0.5031250000000003 -0.37187499999999996
v 0.028124999999999997 0.5031250000000003 -0.37187499999999996
v 0.028124999999999997 0.4906250000000003 -0.37187499999999996
v 0.028124999999999997 0.4906250000000003 -0.37187499999999996
vt 0.20625000000000002 0.953125
vt 0.153125 0.953125
vt 0.153125 0.940625
vt 0.20625000000000002 0.940625
vt 0 0.953125
vt 0 0.953125
vt 0 0.940625
vt 0 0.940625
vt 0.096875 0.953125
vt 0.04375 0.953125
vt 0.04375 0.940625
vt 0.096875 0.940625
vt 0 0.953125
vt 0 0.953125
vt 0 0.940625
vt 0 0.940625
vt 0.096875 1
vt 0.04375 1
vt 0.04375 1
vt 0.096875 1
vt 0.096875 1
vt 0.04375 1
vt 0.04375 1
vt 0.096875 1
vn 0 0 -1
vn 1 0 0
vn 0 0 1
vn -1 0 0
vn 0 1 0
vn 0 -1 0
usemtl m_a132d23a-e616-e7c4-808f-60cf7f1026ba
f 185/555/139 183/554/139 180/553/139
f 182/556/139 185/555/139 180/553/139
f 182/559/140 180/558/140 179/557/140
f 181/560/140 182/559/140 179/557/140
f 181/563/141 179/562/141 184/561/141
f 186/564/141 181/563/141 184/561/141
f 186/567/142 184/566/142 183/565/142
f 185/568/142 186/567/142 183/565/142
f 179/571/143 180/570/143 183/569/143
f 184/572/143 179/571/143 183/569/143
f 182/575/144 181/574/144 186/573/144
f 185/576/144 182/575/144 186/573/144
o digit_g_1_a
v -0.028124999999999997 0.571875 -0.3734375
v -0.028124999999999997 0.571875 -0.3734375
v -0.028124999999999997 0.5593750000000001 -0.3734375
v -0.028124999999999997 0.5593750000000001 -0.3734375
v -0.08125 0.571875 -0.3734375
v -0.08125 0.571875 -0.3734375
v -0.08125 0.5593750000000001 -0.3734375
v -0.08125 0.5593750000000001 -0.3734375
vt 0.153125 0.953125
vt 0.20625000000000002 0.953125
vt 0.20625000000000002 0.940625
vt 0.153125 0.940625
vt 0 0.953125
vt 0 0.953125
vt 0 0.940625
vt 0 0.940625
vt 0.04375 0.953125
vt 0.096875 0.953125
vt 0.096875 0.940625
vt 0.04375 0.940625
vt 0 0.953125
vt 0 0.953125
vt 0 0.940625
vt 0 0.940625
vt 0.04375 1
vt 0.096875 1
vt 0.096875 1
vt 0.04375 1
vt 0.04375 1
vt 0.096875 1
vt 0.096875 1
vt 0.04375 1
vn 0 0 -1
vn 1 0 0
vn 0 0 1
vn -1 0 0
vn 0 1 0
vn 0 -1 0
usemtl m_a112b053-66d5-4382-b008-c6c795b1f438
f 193/579/145 191/578/145 188/577/145
f 190/580/145 193/579/145 188/577/145
f 190/583/146 188/582/146 187/581/146
f 189/584/146 190/583/146 187/581/146
f 189/587/147 187/586/147 192/585/147
f 194/588/147 189/587/147 192/585/147
f 194/591/148 192/590/148 191/589/148
f 193/592/148 194/591/148 191/589/148
f 187/595/149 188/594/149 191/593/149
f 192/596/149 187/595/149 191/593/149
f 190/599/150 189/598/150 194/597/150
f 193/600/150 190/599/150 194/597/150
o digit_g_1_b
v -0.015625 0.5593750000000002 -0.3734375
v -0.015625 0.5593750000000002 -0.3734375
v -0.015625 0.5031250000000003 -0.3734375
v -0.015625 0.5031250000000003 -0.3734375
v -0.028124999999999997 0.5593750000000002 -0.3734375
v -0.028124999999999997 0.5593750000000002 -0.3734375
v -0.028124999999999997 0.5031250000000003 -0.3734375
v -0.028124999999999997 0.5031250000000003 -0.3734375
vt 0.140625 0.99375
vt 0.153125 0.99375
vt 0.153125 0.9375
vt 0.140625 0.9375
vt 0 0.99375
vt 0 0.99375
vt 0 0.9375
vt 0 0.9375
vt 0.096875 0.99375
vt 0.109375 0.99375
vt 0.109375 0.9375
vt 0.096875 0.9375
vt 0 0.99375
vt 0 0.99375
vt 0 0.9375
vt 0 0.9375
vt 0.096875 1
vt 0.109375 1
vt 0.109375 1
vt 0.096875 1
vt 0.096875 1
vt 0.109375 1
vt 0.109375 1
vt 0.096875 1
vn 0 0 -1
vn 1 0 0
vn 0 0 1
vn -1 0 0
vn 0 1 0
vn 0 -1 0
usemtl m_a112b053-66d5-4382-b008-c6c795b1f438
f 201/603/151 199/602/151 196/601/151
f 198/604/151 201/603/151 196/601/151
f 198/607/152 196/606/152 195/605/152
f 197/608/152 198/607/152 195/605/152
f 197/611/153 195/610/153 200/609/153
f 202/612/153 197/611/153 200/609/153
f 202/615/154 200/614/154 199/613/154
f 201/616/154 202/615/154 199/613/154
f 195/619/155 196/618/155 199/617/155
f 200/620/155 195/619/155 199/617/155
f 198/623/156 197/622/156 202/621/156
f 201/624/156 198/623/156 202/621/156
o digit_g_1_c
v -0.015625 0.49062500000000053 -0.3734375
v -0.015625 0.49062500000000053 -0.3734375
v -0.015625 0.4343750000000005 -0.3734375
v -0.015625 0.4343750000000005 -0.3734375
v -0.028124999999999997 0.49062500000000053 -0.3734375
v -0.028124999999999997 0.49062500000000053 -0.3734375
v -0.028124999999999997 0.4343750000000005 -0.3734375
v -0.028124999999999997 0.4343750000000005 -0.3734375
vt 0.140625 0.99375
vt 0.153125 0.99375
vt 0.153125 0.9375
vt 0.140625 0.9375
vt 0 0.99375
vt 0 0.99375
vt 0 0.9375
vt 0 0.9375
vt 0.096875 0.99375
vt 0.109375 0.99375
vt 0.109375 0.9375
vt 0.096875 0.9375
vt 0 0.99375
vt 0 0.99375
vt 0 0.9375
vt 0 0.9375
vt 0.096875 1
vt 0.109375 1
vt 0.109375 1
vt 0.096875 1
vt 0.096875 1
vt 0.109375 1
vt 0.109375 1
vt 0.096875 1
vn 0 0 -1
vn 1 0 0
vn 0 0 1
vn -1 0 0
vn 0 1 0
vn 0 -1 0
usemtl m_a112b053-66d5-4382-b008-c6c795b1f438
f 209/627/157 207/626/157 204/625/157
f 206/628/157 209/627/157 204/625/157
f 206/631/158 204/630/158 203/629/158
f 205/632/158 206/631/158 203/629/158
f 205/635/159 203/634/159 208/633/159
f 210/636/159 205/635/159 208/633/159
f 210/639/160 208/638/160 207/637/160
f 209/640/160 210/639/160 207/637/160
f 203/643/161 204/642/161 207/641/161
f 208/644/161 203/643/161 207/641/161
f 206/647/162 205/646/162 210/645/162
f 209/648/162 206/647/162 210/645/162
o digit_g_1_d
v -0.028124999999999997 0.4343750000000005 -0.3734375
v -0.028124999999999997 0.4343750000000005 -0.3734375
v -0.028124999999999997 0.42187500000000056 -0.3734375
v -0.028124999999999997 0.42187500000000056 -0.3734375
v -0.08125 0.4343750000000005 -0.3734375
v -0.08125 0.4343750000000005 -0.3734375
v -0.08125 0.42187500000000056 -0.3734375
v -0.08125 0.42187500000000056 -0.3734375
vt 0.153125 0.953125
vt 0.20625000000000002 0.953125
vt 0.20625000000000002 0.940625
vt 0.153125 0.940625
vt 0 0.953125
vt 0 0.953125
vt 0 0.940625
vt 0 0.940625
vt 0.04375 0.953125
vt 0.096875 0.953125
vt 0.096875 0.940625
vt 0.04375 0.940625
vt 0 0.953125
vt 0 0.953125
vt 0 0.940625
vt 0 0.940625
vt 0.04375 1
vt 0.096875 1
vt 0.096875 1
vt 0.04375 1
vt 0.04375 1
vt 0.096875 1
vt 0.096875 1
vt 0.04375 1
vn 0 0 -1
vn 1 0 0
vn 0 0 1
vn -1 0 0
vn 0 1 0
vn 0 -1 0
usemtl m_a112b053-66d5-4382-b008-c6c795b1f438
f 217/651/163 215/650/163 212/649/163
f 214/652/163 217/651/163 212/649/163
f 214/655/164 212/654/164 211/653/164
f 213/656/164 214/655/164 211/653/164
f 213/659/165 211/658/165 216/657/165
f 218/660/165 213/659/165 216/657/165
f 218/663/166 216/662/166 215/661/166
f 217/664/166 218/663/166 215/661/166
f 211/667/167 212/666/167 215/665/167
f 216/668/167 211/667/167 215/665/167
f 214/671/168 213/670/168 218/669/168
f 217/672/168 214/671/168 218/669/168
o digit_g_1_e
v -0.08124999999999993 0.49062500000000053 -0.3734375
v -0.08124999999999993 0.49062500000000053 -0.3734375
v -0.08124999999999993 0.4343750000000005 -0.3734375
v -0.08124999999999993 0.4343750000000005 -0.3734375
v -0.09374999999999992 0.49062500000000053 -0.3734375
v -0.09374999999999992 0.49062500000000053 -0.3734375
v -0.09374999999999992 0.4343750000000005 -0.3734375
v -0.09374999999999992 0.4343750000000005 -0.3734375
vt 0.140625 0.99375
vt 0.153125 0.99375
vt 0.153125 0.9375
vt 0.140625 0.9375
vt 0 0.99375
vt 0 0.99375
vt 0 0.9375
vt 0 0.9375
vt 0.096875 0.99375
vt 0.109375 0.99375
vt 0.109375 0.9375
vt 0.096875 0.9375
vt 0 0.99375
vt 0 0.99375
vt 0 0.9375
vt 0 0.9375
vt 0.096875 1
vt 0.109375 1
vt 0.109375 1
vt 0.096875 1
vt 0.096875 1
vt 0.109375 1
vt 0.109375 1
vt 0.096875 1
vn 0 0 -1
vn 1 0 0
vn 0 0 1
vn -1 0 0
vn 0 1 0
vn 0 -1 0
usemtl m_a112b053-66d5-4382-b008-c6c795b1f438
f 225/675/169 223/674/169 220/673/169
f 222/676/169 225/675/169 220/673/169
f 222/679/170 220/678/170 219/677/170
f 221/680/170 222/679/170 219/677/170
f 221/683/171 219/682/171 224/681/171
f 226/684/171 221/683/171 224/681/171
f 226/687/172 224/686/172 223/685/172
f 225/688/172 226/687/172 223/685/172
f 219/691/173 220/690/173 223/689/173
f 224/692/173 219/691/173 223/689/173
f 222/695/174 221/694/174 226/693/174
f 225/696/174 222/695/174 226/693/174
o digit_g_1_f
v -0.08124999999999993 0.5593750000000003 -0.3734375
v -0.08124999999999993 0.5593750000000003 -0.3734375
v -0.08124999999999993 0.5031250000000004 -0.3734375
v -0.08124999999999993 0.5031250000000004 -0.3734375
v -0.09374999999999992 0.5593750000000003 -0.3734375
v -0.09374999999999992 0.5593750000000003 -0.3734375
v -0.09374999999999992 0.5031250000000004 -0.3734375
v -0.09374999999999992 0.5031250000000004 -0.3734375
vt 0.140625 0.99375
vt 0.153125 0.99375
vt 0.153125 0.9375
vt 0.140625 0.9375
vt 0 0.99375
vt 0 0.99375
vt 0 0.9375
vt 0 0.9375
vt 0.096875 0.99375
vt 0.109375 0.99375
vt 0.109375 0.9375
vt 0.096875 0.9375
vt 0 0.99375
vt 0 0.99375
vt 0 0.9375
vt 0 0.9375
vt 0.096875 1
vt 0.109375 1
vt 0.109375 1
vt 0.096875 1
vt 0.096875 1
vt 0.109375 1
vt 0.109375 1
vt 0.096875 1
vn 0 0 -1
vn 1 0 0
vn 0 0 1
vn -1 0 0
vn 0 1 0
vn 0 -1 0
usemtl m_a112b053-66d5-4382-b008-c6c795b1f438
f 233/699/175 231/698/175 228/697/175
f 230/700/175 233/699/175 228/697/175
f 230/703/176 228/702/176 227/701/176
f 229/704/176 230/703/176 227/701/176
f 229/707/177 227/706/177 232/705/177
f 234/708/177 229/707/177 232/705/177
f 234/711/178 232/710/178 231/709/178
f 233/712/178 234/711/178 231/709/178
f 227/715/179 228/714/179 231/713/179
f 232/716/179 227/715/179 231/713/179
f 230/719/180 229/718/180 234/717/180
f 233/720/180 230/719/180 234/717/180
o digit_g_1_g
v -0.028124999999999997 0.5031250000000003 -0.3734375
v -0.028124999999999997 0.5031250000000003 -0.3734375
v -0.028124999999999997 0.4906250000000003 -0.3734375
v -0.028124999999999997 0.4906250000000003 -0.3734375
v -0.08125 0.5031250000000003 -0.3734375
v -0.08125 0.5031250000000003 -0.3734375
v -0.08125 0.4906250000000003 -0.3734375
v -0.08125 0.4906250000000003 -0.3734375
vt 0.153125 0.953125
vt 0.20625000000000002 0.953125
vt 0.20625000000000002 0.940625
vt 0.153125 0.940625
vt 0 0.953125
vt 0 0.953125
vt 0 0.940625
vt 0 0.940625
vt 0.04375 0.953125
vt 0.096875 0.953125
vt 0.096875 0.940625
vt 0.04375 0.940625
vt 0 0.953125
vt 0 0.953125
vt 0 0.940625
vt 0 0.940625
vt 0.04375 1
vt 0.096875 1
vt 0.096875 1
vt 0.04375 1
vt 0.04375 1
vt 0.096875 1
vt 0.096875 1
vt 0.04375 1
vn 0 0 -1
vn 1 0 0
vn 0 0 1
vn -1 0 0
vn 0 1 0
vn 0 -1 0
usemtl m_a112b053-66d5-4382-b008-c6c795b1f438
f 241/723/181 239/722/181 236/721/181
f 238/724/181 241/723/181 236/721/181
f 238/727/182 236/726/182 235/725/182
f 237/728/182 238/727/182 235/725/182
f 237/731/183 235/730/183 240/729/183
f 242/732/183 237/731/183 240/729/183
f 242/735/184 240/734/184 239/733/184
f 241/736/184 242/735/184 239/733/184
f 235/739/185 236/738/185 239/737/185
f 240/740/185 235/739/185 239/737/185
f 238/743/186 237/742/186 242/741/186
f 241/744/186 238/743/186 242/741/186
o digit_g_2_a
v 0.08125 0.571875 -0.3734375
v 0.08125 0.571875 -0.3734375
v 0.08125 0.5593750000000001 -0.3734375
v 0.08125 0.5593750000000001 -0.3734375
v 0.028124999999999997 0.571875 -0.3734375
v 0.028124999999999997 0.571875 -0.3734375
v 0.028124999999999997 0.5593750000000001 -0.3734375
v 0.028124999999999997 0.5593750000000001 -0.3734375
vt 0.20625000000000002 0.953125
vt 0.153125 0.953125
vt 0.153125 0.940625
vt 0.20625000000000002 0.940625
vt 0 0.953125
vt 0 0.953125
vt 0 0.940625
vt 0 0.940625
vt 0.096875 0.953125
vt 0.04375 0.953125
vt 0.04375 0.940625
vt 0.096875 0.940625
vt 0 0.953125
vt 0 0.953125
vt 0 0.940625
vt 0 0.940625
vt 0.096875 1
vt 0.04375 1
vt 0.04375 1
vt 0.096875 1
vt 0.096875 1
vt 0.04375 1
vt 0.04375 1
vt 0.096875 1
vn 0 0 -1
vn 1 0 0
vn 0 0 1
vn -1 0 0
vn 0 1 0
vn 0 -1 0
usemtl m_a112b053-66d5-4382-b008-c6c795b1f438
f 249/747/187 247/746/187 244/745/187
f 246/748/187 249/747/187 244/745/187
f 246/751/188 244/750/188 243/749/188
f 245/752/188 246/751/188 243/749/188
f 245/755/189 243/754/189 248/753/189
f 250/756/189 245/755/189 248/753/189
f 250/759/190 248/758/190 247/757/190
f 249/760/190 250/759/190 247/757/190
f 243/763/191 244/762/191 247/761/191
f 248/764/191 243/763/191 247/761/191
f 246/767/192 245/766/192 250/765/192
f 249/768/192 246/767/192 250/765/192
o digit_g_2_b
v 0.028124999999999997 0.5593750000000002 -0.3734375
v 0.028124999999999997 0.5593750000000002 -0.3734375
v 0.028124999999999997 0.5031250000000003 -0.3734375
v 0.028124999999999997 0.5031250000000003 -0.3734375
v 0.015625 0.5593750000000002 -0.3734375
v 0.015625 0.5593750000000002 -0.3734375
v 0.015625 0.5031250000000003 -0.3734375
v 0.015625 0.5031250000000003 -0.3734375
vt 0.153125 0.99375
vt 0.140625 0.99375
vt 0.140625 0.9375
vt 0.153125 0.9375
vt 0 0.99375
vt 0 0.99375
vt 0 0.9375
vt 0 0.9375
vt 0.109375 0.99375
vt 0.096875 0.99375
vt 0.096875 0.9375
vt 0.109375 0.9375
vt 0 0.99375
vt 0 0.99375
vt 0 0.9375
vt 0 0.9375
vt 0.109375 1
vt 0.096875 1
vt 0.096875 1
vt 0.109375 1
vt 0.109375 1
vt 0.096875 1
vt 0.096875 1
vt 0.109375 1
vn 0 0 -1
vn 1 0 0
vn 0 0 1
vn -1 0 0
vn 0 1 0
vn 0 -1 0
usemtl m_a112b053-66d5-4382-b008-c6c795b1f438
f 257/771/193 255/770/193 252/769/193
f 254/772/193 257/771/193 252/769/193
f 254/775/194 252/774/194 251/773/194
f 253/776/194 254/775/194 251/773/194
f 253/779/195 251/778/195 256/777/195
f 258/780/195 253/779/195 256/777/195
f 258/783/196 256/782/196 255/781/196
f 257/784/196 258/783/196 255/781/196
f 251/787/197 252/786/197 255/785/197
f 256/788/197 251/787/197 255/785/197
f 254/791/198 253/790/198 258/789/198
f 257/792/198 254/791/198 258/789/198
o digit_g_2_c
v 0.028124999999999997 0.49062500000000053 -0.3734375
v 0.028124999999999997 0.49062500000000053 -0.3734375
v 0.028124999999999997 0.4343750000000005 -0.3734375
v 0.028124999999999997 0.4343750000000005 -0.3734375
v 0.015625 0.49062500000000053 -0.3734375
v 0.015625 0.49062500000000053 -0.3734375
v 0.015625 0.4343750000000005 -0.3734375
v 0.015625 0.4343750000000005 -0.3734375
vt 0.153125 0.99375
vt 0.140625 0.99375
vt 0.140625 0.9375
vt 0.153125 0.9375
vt 0 0.99375
vt 0 0.99375
vt 0 0.9375
vt 0 0.9375
vt 0.109375 0.99375
vt 0.096875 0.99375
vt 0.096875 0.9375
vt 0.109375 0.9375
vt 0 0.99375
vt 0 0.99375
vt 0 0.9375
vt 0 0.9375
vt 0.109375 1
vt 0.096875 1
vt 0.096875 1
vt 0.109375 1
vt 0.109375 1
vt 0.096875 1
vt 0.096875 1
vt 0.109375 1
vn 0 0 -1
vn 1 0 0
vn 0 0 1
vn -1 0 0
vn 0 1 0
vn 0 -1 0
usemtl m_a112b053-66d5-4382-b008-c6c795b1f438
f 265/795/199 263/794/199 260/793/199
f 262/796/199 265/795/199 260/793/199
f 262/799/200 260/798/200 259/797/200
f 261/800/200 262/799/200 259/797/200
f 261/803/201 259/802/201 264/801/201
f 266/804/201 261/803/201 264/801/201
f 266/807/202 264/806/202 263/805/202
f 265/808/202 266/807/202 263/805/202
f 259/811/203 260/810/203 263/809/203
f 264/812/203 259/811/203 263/809/203
f 262/815/204 261/814/204 266/813/204
f 265/816/204 262/815/204 266/813/204
o digit_g_2_d
v 0.08125 0.4343750000000005 -0.3734375
v 0.08125 0.4343750000000005 -0.3734375
v 0.08125 0.42187500000000056 -0.3734375
v 0.08125 0.42187500000000056 -0.3734375
v 0.028124999999999997 0.4343750000000005 -0.3734375
v 0.028124999999999997 0.4343750000000005 -0.3734375
v 0.028124999999999997 0.42187500000000056 -0.3734375
v 0.028124999999999997 0.42187500000000056 -0.3734375
vt 0.20625000000000002 0.953125
vt 0.153125 0.953125
vt 0.153125 0.940625
vt 0.20625000000000002 0.940625
vt 0 0.953125
vt 0 0.953125
vt 0 0.940625
vt 0 0.940625
vt 0.096875 0.953125
vt 0.04375 0.953125
vt 0.04375 0.940625
vt 0.096875 0.940625
vt 0 0.953125
vt 0 0.953125
vt 0 0.940625
vt 0 0.940625
vt 0.096875 1
vt 0.04375 1
vt 0.04375 1
vt 0.096875 1
vt 0.096875 1
vt 0.04375 1
vt 0.04375 1
vt 0.096875 1
vn 0 0 -1
vn 1 0 0
vn 0 0 1
vn -1 0 0
vn 0 1 0
vn 0 -1 0
usemtl m_a112b053-66d5-4382-b008-c6c795b1f438
f 273/819/205 271/818/205 268/817/205
f 270/820/205 273/819/205 268/817/205
f 270/823/206 268/822/206 267/821/206
f 269/824/206 270/823/206 267/821/206
f 269/827/207 267/826/207 272/825/207
f 274/828/207 269/827/207 272/825/207
f 274/831/208 272/830/208 271/829/208
f 273/832/208 274/831/208 271/829/208
f 267/835/209 268/834/209 271/833/209
f 272/836/209 267/835/209 271/833/209
f 270/839/210 269/838/210 274/837/210
f 273/840/210 270/839/210 274/837/210
o digit_g_2_e
v 0.09374999999999992 0.49062500000000053 -0.3734375
v 0.09374999999999992 0.49062500000000053 -0.3734375
v 0.09374999999999992 0.4343750000000005 -0.3734375
v 0.09374999999999992 0.4343750000000005 -0.3734375
v 0.08124999999999993 0.49062500000000053 -0.3734375
v 0.08124999999999993 0.49062500000000053 -0.3734375
v 0.08124999999999993 0.4343750000000005 -0.3734375
v 0.08124999999999993 0.4343750000000005 -0.3734375
vt 0.153125 0.99375
vt 0.140625 0.99375
vt 0.140625 0.9375
vt 0.153125 0.9375
vt 0 0.99375
vt 0 0.99375
vt 0 0.9375
vt 0 0.9375
vt 0.109375 0.99375
vt 0.096875 0.99375
vt 0.096875 0.9375
vt 0.109375 0.9375
vt 0 0.99375
vt 0 0.99375
vt 0 0.9375
vt 0 0.9375
vt 0.109375 1
vt 0.096875 1
vt 0.096875 1
vt 0.109375 1
vt 0.109375 1
vt 0.096875 1
vt 0.096875 1
vt 0.109375 1
vn 0 0 -1
vn 1 0 0
vn 0 0 1
vn -1 0 0
vn 0 1 0
vn 0 -1 0
usemtl m_a112b053-66d5-4382-b008-c6c795b1f438
f 281/843/211 279/842/211 276/841/211
f 278/844/211 281/843/211 276/841/211
f 278/847/212 276/846/212 275/845/212
f 277/848/212 278/847/212 275/845/212
f 277/851/213 275/850/213 280/849/213
f 282/852/213 277/851/213 280/849/213
f 282/855/214 280/854/214 279/853/214
f 281/856/214 282/855/214 279/853/214
f 275/859/215 276/858/215 279/857/215
f 280/860/215 275/859/215 279/857/215
f 278/863/216 277/862/216 282/861/216
f 281/864/216 278/863/216 282/861/216
o digit_g_2_f
v 0.09374999999999992 0.5593750000000003 -0.3734375
v 0.09374999999999992 0.5593750000000003 -0.3734375
v 0.09374999999999992 0.5031250000000004 -0.3734375
v 0.09374999999999992 0.5031250000000004 -0.3734375
v 0.08124999999999993 0.5593750000000003 -0.3734375
v 0.08124999999999993 0.5593750000000003 -0.3734375
v 0.08124999999999993 0.5031250000000004 -0.3734375
v 0.08124999999999993 0.5031250000000004 -0.3734375
vt 0.153125 0.99375
vt 0.140625 0.99375
vt 0.140625 0.9375
vt 0.153125 0.9375
vt 0 0.99375
vt 0 0.99375
vt 0 0.9375
vt 0 0.9375
vt 0.109375 0.99375
vt 0.096875 0.99375
vt 0.096875 0.9375
vt 0.109375 0.9375
vt 0 0.99375
vt 0 0.99375
vt 0 0.9375
vt 0 0.9375
vt 0.109375 1
vt 0.096875 1
vt 0.096875 1
vt 0.109375 1
vt 0.109375 1
vt 0.096875 1
vt 0.096875 1
vt 0.109375 1
vn 0 0 -1
vn 1 0 0
vn 0 0 1
vn -1 0 0
vn 0 1 0
vn 0 -1 0
usemtl m_a112b053-66d5-4382-b008-c6c795b1f438
f 289/867/217 287/866/217 284/865/217
f 286/868/217 289/867/217 284/865/217
f 286/871/218 284/870/218 283/869/218
f 285/872/218 286/871/218 283/869/218
f 285/875/219 283/874/219 288/873/219
f 290/876/219 285/875/219 288/873/219
f 290/879/220 288/878/220 287/877/220
f 289/880/220 290/879/220 287/877/220
f 283/883/221 284/882/221 287/881/221
f 288/884/221 283/883/221 287/881/221
f 286/887/222 285/886/222 290/885/222
f 289/888/222 286/887/222 290/885/222
o digit_g_2_g
v 0.08125 0.5031250000000003 -0.3734375
v 0.08125 0.5031250000000003 -0.3734375
v 0.08125 0.4906250000000003 -0.3734375
v 0.08125 0.4906250000000003 -0.3734375
v 0.028124999999999997 0.5031250000000003 -0.3734375
v 0.028124999999999997 0.5031250000000003 -0.3734375
v 0.028124999999999997 0.4906250000000003 -0.3734375
v 0.028124999999999997 0.4906250000000003 -0.3734375
vt 0.20625000000000002 0.953125
vt 0.153125 0.953125
vt 0.153125 0.940625
vt 0.20625000000000002 0.940625
vt 0 0.953125
vt 0 0.953125
vt 0 0.940625
vt 0 0.940625
vt 0.096875 0.953125
vt 0.04375 0.953125
vt 0.04375 0.940625
vt 0.096875 0.940625
vt 0 0.953125
vt 0 0.953125
vt 0 0.940625
vt 0 0.940625
vt 0.096875 1
vt 0.04375 1
vt 0.04375 1
vt 0.096875 1
vt 0.096875 1
vt 0.04375 1
vt 0.04375 1
vt 0.096875 1
vn 0 0 -1
vn 1 0 0
vn 0 0 1
vn -1 0 0
vn 0 1 0
vn 0 -1 0
usemtl m_a112b053-66d5-4382-b008-c6c795b1f438
f 297/891/223 295/890/223 292/889/223
f 294/892/223 297/891/223 292/889/223
f 294/895/224 292/894/224 291/893/224
f 293/896/224 294/895/224 291/893/224
f 293/899/225 291/898/225 296/897/225
f 298/900/225 293/899/225 296/897/225
f 298/903/226 296/902/226 295/901/226
f 297/904/226 298/903/226 295/901/226
f 291/907/227 292/906/227 295/905/227
f 296/908/227 291/907/227 295/905/227
f 294/911/228 293/910/228 298/909/228
f 297/912/228 294/911/228 298/909/228